<?xml version="1.0" standalone="no"?>
<!DOCTYPE svg PUBLIC "-//W3C//DTD SVG 20010904//EN"
 "http://www.w3.org/TR/2001/REC-SVG-20010904/DTD/svg10.dtd">
<svg version="1.0" xmlns="http://www.w3.org/2000/svg"
 width="1280.000000pt" height="1280.000000pt" viewBox="0 0 1280.000000 1280.000000"
 preserveAspectRatio="xMidYMid meet">
<metadata>
Created by potrace 1.11, written by Peter Selinger 2001-2013
</metadata>
<g transform="translate(0.000000,1280.000000) scale(0.100000,-0.100000)"
fill="#000000" stroke="none">
<path d="M12225 11329 c45 -14 303 -59 448 -78 l127 -18 0 47 0 47 -67 6
c-108 11 -543 7 -508 -4z"/>
<path d="M10740 11136 c0 -11 82 -45 110 -47 14 0 19 -3 12 -6 -19 -7 75 -50
273 -125 166 -63 165 -59 15 -53 -526 20 -752 27 -756 23 -2 -3 47 -16 110
-29 63 -13 113 -25 111 -27 -4 -4 -420 13 -595 24 -85 5 -93 5 -80 -9 17 -17
201 -132 295 -184 l60 -33 -100 5 c-55 3 -230 12 -390 20 -159 8 -330 17 -380
20 -49 3 -85 3 -80 0 6 -3 39 -16 75 -30 l65 -24 -85 5 -85 6 30 -29 c17 -15
57 -52 90 -81 l60 -54 -95 6 c-52 4 -129 9 -170 11 l-75 5 70 -30 70 -30 -60
5 c-33 3 -123 10 -200 15 -77 6 -162 13 -189 16 l-49 6 21 -28 c25 -35 58 -73
118 -136 25 -27 39 -48 32 -48 -7 0 -147 11 -311 26 -165 14 -301 23 -304 21
-3 -3 27 -47 65 -99 39 -51 69 -94 68 -96 -3 -2 -374 29 -501 43 l-50 6 39
-25 39 -25 -32 -3 -31 -3 45 -67 c25 -37 45 -69 45 -70 0 -2 -55 2 -122 9 -68
6 -136 12 -153 12 l-30 1 40 -25 c22 -13 36 -24 30 -24 -5 -1 -68 6 -140 13
-71 8 -132 13 -134 11 -2 -2 6 -20 18 -39 11 -20 30 -51 41 -70 l20 -34 -47 5
-48 4 40 -26 40 -26 -70 7 c-38 4 -146 14 -240 24 -93 10 -172 16 -173 15 -2
-2 17 -43 43 -90 26 -48 45 -89 42 -91 -3 -3 -118 7 -257 21 -138 15 -253 25
-255 23 -1 -2 15 -40 38 -86 22 -45 38 -85 34 -88 -3 -3 -70 0 -149 8 -79 8
-144 14 -146 13 -2 -1 12 -12 30 -25 l33 -22 -67 6 c-38 3 -97 9 -133 12 l-66
7 27 -62 c15 -34 24 -64 21 -67 -3 -3 -44 -2 -91 3 -47 5 -86 8 -86 7 0 -1 15
-11 33 -23 40 -26 41 -26 -180 -4 -95 9 -175 14 -178 11 -3 -3 3 -29 15 -57
28 -71 27 -74 -22 -66 l-43 6 33 -22 c18 -12 31 -23 29 -25 -2 -2 -117 8 -257
21 -139 14 -255 23 -257 22 -1 -2 10 -41 25 -88 l28 -84 -246 21 c-135 12
-270 25 -301 28 l-57 5 23 -87 22 -88 -26 3 c-46 6 -645 52 -647 50 -1 -1 4
-38 12 -81 7 -44 12 -81 10 -84 -2 -2 -141 6 -307 17 -504 34 -570 36 -565 20
3 -8 7 -47 9 -87 l5 -72 -32 4 c-17 3 -101 8 -186 11 -85 3 -276 10 -425 15
-672 25 -968 30 -981 19 -8 -6 -14 -24 -14 -38 0 -15 -5 -38 -12 -52 -11 -25
-12 -25 -142 -22 -126 3 -129 2 -92 -12 22 -8 42 -18 45 -20 6 -7 -1284 3
-1381 10 l-68 5 0 -4345 0 -4345 6400 0 6400 0 0 5548 0 5549 -512 7 c-467 6
-742 13 -1340 32 -115 4 -208 4 -208 0z"/>
</g>
</svg>
